# xmcd
#
# Track frame offsets:
#	150
#	17745
#	33665
#	60050
#
# Disc length: 1028 seconds
#
# Revision: 0
# Processed by: cddbd v1.5.2PL0 Copyright (c) Steve Scherf et al.
# Submitted via: audiograbber 1.83.01
#
DISCID=25040204
DTITLE=Loft - Summer Summer Recal
DYEAR=2003
DGENRE=Dance
TTITLE0=Summer Sumer (radio edit)
TTITLE1=Summer Summer (pro Trance mix
TTITLE2=Summer Summer (Club Mix)
TTITLE3=Ayaya
EXTD=
EXTT0=
EXTT1=
EXTT2=
EXTT3=
PLAYORDER=
